<svg xmlns="http://www.w3.org/2000/svg" width="400" height="400" viewBox="0 0 400 NaN"  fill-rule="evenodd" xmlns:v="https://vecta.io/nano"><path d="M72.474 98.3c-7.185.68-8.795 2.952-8.763 12.362.072 21.546 14.821 64.148 28.49 82.294l2.059 2.734 2.794-3.978c3.882-5.526 6.377-8.855 6.636-8.855 1.349 0 10.841 3.389 15.608 5.573 44.662 20.458 68.324 71.129 53.911 115.449l-1.555 4.898c-.172 1.137 1.769 1.274 5.586.394 14.981-3.452 31.416-3.448 45.933.011l3.662.872.938-.548c1.154-.674 1.187-.279-.422-5.116-16.289-48.95 14.533-105.213 66.029-120.532l3.345-.995.557.737c.788 1.04 7.715 10.717 8.241 11.511.435.658.437.657 2.525-2.115 17.546-23.292 34.86-83.317 26.584-92.16-8.444-9.023-69.394 8.147-93.052 26.213l-1.626 1.242-5.064-2.525c-24.09-12.01-45.282-12.056-69.23-.147l-5.35 2.66-1.619-1.235C139.983 112.758 91.277 96.52 72.474 98.3" fill="#f27c4d"/><path d="M101.89 185.167c-14.182 19.511-36.843 57.367-35.236 58.862.211.196 14.684 9.176 32.161 19.954l52.057 32.108 20.523 12.362c.134-.083.755-1.689 1.381-3.57 13.399-40.302-3.912-85.862-41.783-109.962-7.961-5.067-16.185-8.694-27.021-11.919-.274-.082-.991.664-2.082 2.165m55.125 64.313c8.462 3.166 6.301 15.605-2.729 15.707-2.567.029-4.443-.788-6.138-2.674-5.611-6.24 1.01-15.973 8.867-13.033m-7.071 3.042c-1.368 1.368-.991 3.549.769 4.449 1.857.95 4.185-.739 3.904-2.832-.32-2.386-2.983-3.308-4.673-1.617" fill="#ece4cc"/><path d="M189.686.449c-27.601 2.066-48.452 7.058-70.662 16.915-11.881 5.273-22.729 11.439-33.793 19.208-14.607 10.256-27.37 22.003-38.706 35.623-7.534 9.052-14.531 19.135-20.312 29.268-34.546 60.552-34.546 136.8 0 197.352 3.255 5.706 6.118 10.192 10.359 16.232 10.251 14.6 22.03 27.399 35.623 38.708 9.066 7.542 19.138 14.532 29.268 20.311 24.552 14.007 51.79 22.454 81.534 25.284 10.135.965 30.051.66 39.86-.61 11.421-1.478 23.161-3.751 30.244-5.855l4.739-1.401c6.385-1.886 13.789-4.49 18.536-6.521 8.481-3.628 16.52-7.582 22.718-11.175l4.878-2.824c6.566-3.791 18.7-12.577 25.923-18.773 7.55-6.475 14.097-12.985 21.747-21.624 17.1-19.311 32.236-46.94 39.843-72.727l1.4-4.739c.963-3.248 2.934-11.838 3.612-15.749l.582-3.206c2.444-11.651 3.609-38.203 2.225-50.731-.059-.537-.186-2.042-.283-3.345-1.321-17.904-7.717-42.143-16.106-61.046-5.274-11.881-11.44-22.729-19.208-33.793-10.257-14.607-22.003-27.37-35.623-38.706-9.053-7.534-19.135-14.531-29.269-20.312-24.21-13.813-51.104-22.249-80.139-25.137-5.281-.526-24.729-.946-28.99-.627M81.554 98.419c22.62 2.23 60.497 16.086 76.58 28.014l2.284 1.694 3.624-1.89c24.124-12.578 46.486-12.83 70.532-.794l5.306 2.657 2.278-1.684c23.742-17.55 82.96-34.334 92.076-26.096 9.317 8.421-10.36 76.049-27.506 94.533l-.655.707 1.58 2.359c7.394 11.039 15.512 24.624 21.898 36.645 3.311 6.234 4.815 9.284 4.652 9.435-.07.063-9.032 5.606-19.917 12.316l-35.819 22.091c-83.202 51.34-74.75 46.333-78.214 46.333-3.07 0-3.782-.347-15.42-7.505l-58.561-36.071-40.279-24.848-19.918-12.32c-.805-.723 14.983-28.401 24.444-42.85 1.896-2.896 3.394-5.406 3.328-5.577s-.925-1.379-1.91-2.686c-16.098-21.344-32.81-76.034-27.539-90.122 1.542-4.121 6.548-5.387 17.156-4.341" fill="#2e617e"/><path d="M151.466 249.633c-6.362 2.35-6.9 11.508-.85 14.468 7.725 3.78 15.032-5.335 9.687-12.084-1.845-2.33-5.97-3.443-8.837-2.384m91.124.395c-5.024 2.541-5.989 8.814-1.969 12.794 4.927 4.878 13.351 1.287 13.351-5.692 0-5.91-6.151-9.749-11.382-7.102m-89.244 1.837c1.011.523 1.694 1.992 1.464 3.147-.572 2.858-4.783 3.179-5.689.435-.897-2.717 1.678-4.899 4.225-3.582m92.577.673c1.702 1.888.488 4.744-2.017 4.744-1.445 0-2.112-.349-2.649-1.388-1.636-3.164 2.293-5.989 4.666-3.356m-51.359 54.249c-7.611.519-19.707 2.523-20.672 3.424-.257.241 21.251 13.445 22.85 14.028 1.953.712 5.383.647 7.208-.136 1.83-.785 22.658-13.654 22.503-13.904-.311-.504-9.79-2.386-15.164-3.01-2.726-.317-13.999-.588-16.725-.402m9.067 2.897c4.238.258 8.154.788 10.558 1.429l1.088.29-1.088.646c-10.126 6.013-13.833 7.611-15.861 6.84-1.547-.588-13.479-7.389-13.289-7.574.239-.233 3.987-.963 6.877-1.34 4.474-.583 6.203-.626 11.715-.291" fill="#44403b"/><path d="M77.84 98.311a2.29 2.29 0 0 0 .975 0c.269-.07.049-.128-.487-.128s-.757.058-.488.128m243.487.005c.347.066.849.064 1.115-.006s-.017-.124-.63-.121-.831.06-.485.127m15.462 11.789c0 .536.058.756.128.487a2.29 2.29 0 0 0 0-.975c-.07-.269-.128-.049-.128.488m-.278 4.738c0 .537.057.756.127.488s.07-.707 0-.976-.127-.048-.127.488m-137.27 1.877c.655.059 1.659.058 2.23-.002s.034-.108-1.192-.107-1.694.05-1.038.109m46.404 132.392a2.29 2.29 0 0 0 .975 0c.269-.07.049-.127-.488-.127s-.756.057-.487.127m6.062 2.456c.52.537 1.009.976 1.085.976s-.286-.439-.806-.976-1.008-.976-1.085-.976.286.439.806.976M194.08 306.82c.424.064 1.051.063 1.394-.004s-.004-.118-.77-.116-1.047.056-.624.12m1.321 2.775c-3.278.234-9.978 1.347-10.362 1.72-.19.185 11.742 6.986 13.289 7.574 2.028.771 5.735-.827 15.861-6.84l1.088-.646-1.088-.29c-2.404-.641-6.32-1.171-10.558-1.429-4.335-.263-5.602-.277-8.23-.089" fill="#776b64"/><path d="M293.24 183.878c-48.522 14.724-78.93 65.227-68.03 112.986.745 3.263 3.107 10.928 3.571 11.585.131.186 19.735-11.76 52.473-31.974l52.544-32.381c.504-.201-5.298-11.465-11.177-21.7-6.244-10.869-14.503-23.751-21.363-33.316-4.275-5.961-4.473-6.225-4.655-6.197-.087.014-1.6.462-3.363.997m-170.871 6.073c0 .076.377.334.837.572s.836.369.836.293-.376-.334-.836-.572-.837-.37-.837-.293m22.439 15.485c.599.613 1.152 1.115 1.228 1.115s-.35-.502-.949-1.115-1.151-1.115-1.228-1.115.351.501.949 1.115m6.969 6.968c.599.613 1.151 1.115 1.228 1.115s-.35-.502-.949-1.115-1.152-1.115-1.228-1.115.35.502.949 1.115m96.902 36.993c5.328 1.698 7.279 8.78 3.577 12.986-4.959 5.633-14.194 2.266-14.204-5.179-.009-5.739 5.173-9.546 10.627-7.807m-6.347 2.636c-1.326.642-1.717 2.771-.749 4.075 1.241 1.673 3.687 1.386 4.63-.544 1.199-2.452-1.34-4.761-3.881-3.531m-65.258 18.49c.003.613.06.831.127.484s.064-.848-.006-1.115-.124.017-.121.631m.31 6.69c.001 1.533.048 2.124.104 1.314s.056-2.064-.001-2.787-.104-.061-.103 1.473m-.31 6.411c.003.613.06.831.127.484s.064-.848-.006-1.115-.124.017-.121.631" fill="#efd0af"/><path d="M153.519 249.117c.345.066.91.066 1.255 0s.062-.121-.628-.121-.972.054-.627.121m-5.784 12.991c0 .048.408.456.906.906l.906.819-.819-.906c-.763-.845-.993-1.034-.993-.819" fill="#94a4a4"/><path d="M63.362 110.244c.001.92.053 1.262.115.761s.061-1.253-.003-1.672-.114-.009-.112.911" fill="#617481"/></svg>